<svg width="327" height="67" viewBox="0 0 327 67" fill="none" xmlns="http://www.w3.org/2000/svg">
<path d="M35.625 20.8238C27.6211 20.8238 14.872 20.0169 14.872 31.4565C14.872 42.9489 23.0838 41.5768 32.1662 41.5768" stroke="black" stroke-width="3" stroke-linecap="round"/>
<path d="M47.1544 25.4356C46.3012 29.8083 43.6676 39.6747 50.1008 41.5127C54.0311 42.6356 58.6838 41.0243 58.6838 36.3885C58.6838 30.7133 60.6666 27.4038 57.2747 21.9767C55.2317 18.708 49.9477 18.6961 48.3074 21.9767" stroke="black" stroke-width="3" stroke-linecap="round"/>
<path d="M67.9074 19.6709C67.9074 26.2042 67.9074 32.7376 67.9074 39.2709C67.9074 43.9186 66.0076 28.339 69.6368 25.4356C79.5998 17.4652 78.2839 38.5699 78.2839 42.7297" stroke="black" stroke-width="3" stroke-linecap="round"/>
<path d="M84.0486 27.7415C84.0486 31.0508 83.1509 36.4173 84.1127 39.7833C84.6566 41.6871 86.2306 43.9576 86.3545 46.1886C86.6019 50.6413 86.3545 42.793 86.3545 41.5768C86.3545 38.3138 85.5209 33.8298 86.4185 30.6879C87.0341 28.5334 99.8151 29.8672 101.343 31.7768C104.813 36.1147 101.951 41.9129 104.802 46.1886" stroke="black" stroke-width="3" stroke-linecap="round"/>
<path d="M119.79 32.3532C139.744 31.8665 120.586 19.6217 115.755 28.3179C113.509 32.3598 115.192 39.2689 117.228 42.7297C119.359 46.3528 124.065 46.1885 127.86 46.1885" stroke="black" stroke-width="3" stroke-linecap="round"/>
<path d="M147.46 27.7415C143.082 27.7415 139.39 26.8319 139.39 31.8408C139.39 35.1087 138.787 38.7709 141.76 41.0003C144.322 42.9219 153.352 48.2399 155.531 43.8827" stroke="black" stroke-width="3" stroke-linecap="round"/>
<path d="M164.755 21.9767V45.0356" stroke="black" stroke-width="3" stroke-linecap="round"/>
<path d="M156.684 33.5062H176.284" stroke="black" stroke-width="3" stroke-linecap="round"/>
<path d="M207.414 20.8238C207.414 22.5326 205.082 44.9458 209.207 46.1245C212.438 47.0476 214.542 41.244 215.228 39.0147C216.263 35.651 213.599 29.466 216.637 34.4029C217.466 35.7499 229.319 48.1966 229.319 40.9363C229.319 34.1793 230.472 28.3325 230.472 21.9767" stroke="black" stroke-width="3" stroke-linecap="round"/>
<path d="M243.155 32.3532C235.895 42.3353 248.029 40.5292 247.767 35.8121C247.521 31.3926 245.584 31.0024 250.713 35.0434C252.548 36.4895 253.783 38.2439 255.837 39.2709" stroke="black" stroke-width="3" stroke-linecap="round"/>
<path d="M261.602 18.5179C261.602 26.117 262.755 34.5885 262.755 41.5768" stroke="black" stroke-width="3" stroke-linecap="round"/>
<path d="M270.825 20.8238V43.8827" stroke="black" stroke-width="3" stroke-linecap="round"/>
<path d="M280.049 36.965C287.369 36.782 287.03 30.8575 281.202 31.2003C277.962 31.3909 278.896 36.5897 278.896 38.6944C278.896 45.3752 281.96 49.6474 289.273 49.6474" stroke="black" stroke-width="3" stroke-linecap="round"/>
<path d="M299.649 24.2826C299.649 29.2658 298.232 37.5914 300.802 42.0892C302.59 45.218 305.383 48.4009 306.567 51.9533" stroke="black" stroke-width="3" stroke-linecap="round"/>
<path d="M293.884 40.4238C298.576 40.33 303.057 39.2709 307.72 39.2709" stroke="black" stroke-width="3" stroke-linecap="round"/>
<path d="M100.19 5.83552C80.5898 5.83552 60.9898 5.83552 41.3897 5.83552C35.5862 5.83552 30.1688 5.45081 24.672 7.56494C19.7907 9.44238 12.376 9.67706 8.53083 12.7532C2.45984 17.61 2.18964 30.3099 2.18964 37.5415C2.18964 50.6859 26.741 57.718 37.0342 57.718C49.2184 57.718 61.8205 58.7042 73.6721 55.4121C86.2138 51.9283 100.263 57.196 112.616 53.3624C120.964 50.7717 129.485 50.8003 138.173 50.8003C146.578 50.8003 150.208 52.11 157.709 55.8605C162.362 58.1871 168.179 58.5182 173.081 56.8213C179.897 54.4619 183.683 57.718 190.376 57.718C198.229 57.718 205.848 59.4427 213.242 61.7533C220.383 63.9848 230.421 63.4827 237.903 63.4827C246.272 63.4827 254.642 63.4827 263.011 63.4827C267.449 63.4827 271.898 63.5835 276.334 63.4827C280.063 63.3979 282.999 61.1768 286.967 61.1768C291.367 61.1768 295.66 60.5912 299.649 62.586C304.315 64.9188 310.021 66.122 314.381 62.0736C316.731 59.8914 318.731 58.3161 321.555 56.8213C323.742 55.6634 323.388 53.2665 324.437 51.3768C325.562 49.3528 324.243 39.6774 323.605 36.965C322.4 31.8439 319.501 26.6657 316.303 22.5532C311.264 16.075 305.571 14.2361 298.432 11.0238C293.093 8.62129 288.068 7.26151 282.291 6.41199C274.614 5.28298 266.784 2.49769 259.04 2.37669C248.567 2.21305 234.035 0.296877 224.131 4.10611C216.69 6.96828 207.213 5.83552 199.343 5.83552C188.054 5.83552 177.066 7.83146 165.908 8.14141C151.498 8.54166 136.858 12.2205 122.16 10.3832C112.665 9.19635 105.474 4.68258 95.5781 4.68258" stroke="black" stroke-width="3" stroke-linecap="round"/>
</svg>
