<svg width="80" height="80" viewBox="0 0 80 80" fill="none" xmlns="http://www.w3.org/2000/svg">
<g clip-path="url(#clip0)">
<rect width="80" height="80" fill="white"/>
<rect x="16" y="56.0001" width="8" height="8" fill="#FEB9FF"/>
<rect x="72" y="56.0001" width="8" height="8" fill="#00E0FF"/>
<rect y="56.0001" width="8" height="8" fill="#00E0FF"/>
<rect x="72" y="40" width="8" height="8" fill="#00E0FF"/>
<rect y="40" width="8" height="8" fill="#00E0FF"/>
<rect x="72" y="63.9999" width="8" height="8" fill="#00E0FF"/>
<rect y="63.9999" width="8" height="8" fill="#00E0FF"/>
<rect x="64" y="56.0001" width="8" height="8" fill="#00E0FF"/>
<rect x="56" y="48" width="8" height="8" fill="#00E0FF"/>
<rect x="40" y="56.0001" width="8" height="8" fill="#00E0FF"/>
<rect x="32" y="56.0001" width="8" height="8" fill="#FF7BCA"/>
<rect x="8" y="40" width="8" height="8" fill="#00E0FF"/>
<rect x="16" y="63.9999" width="8" height="8" fill="#00E0FF"/>
<rect x="24" y="40" width="8" height="8" transform="rotate(180 24 40)" fill="#00E0FF"/>
<rect x="32" y="63.9999" width="8" height="8" transform="rotate(180 32 63.9999)" fill="#FEB9FF"/>
<rect x="32" y="72" width="8" height="8" transform="rotate(180 32 72)" fill="#FF7BCA"/>
<rect x="40" y="32" width="8" height="8" fill="#E5E4E4"/>
<rect x="8" y="40" width="8" height="8" fill="#00E0FF"/>
<rect x="48" y="32" width="8" height="8" fill="#CFCFCF"/>
<rect x="64" y="63.9999" width="8" height="8" fill="#00E0FF"/>
<rect x="56" y="63.9999" width="8" height="8" fill="#00E0FF"/>
<rect x="48" y="63.9999" width="8" height="8" fill="#00E0FF"/>
<rect x="56" y="56.0001" width="8" height="8" fill="#00E0FF"/>
<rect x="40" y="63.9999" width="8" height="8" fill="#00E0FF"/>
<rect x="32" y="63.9999" width="8" height="8" fill="#00E0FF"/>
<rect x="8" y="56.0001" width="8" height="8" fill="#00E0FF"/>
<rect x="32" y="72" width="8" height="8" fill="#00E0FF"/>
<rect x="56" y="72" width="8" height="8" fill="#00E0FF"/>
<rect x="64" y="72" width="8" height="8" fill="#00E0FF"/>
<rect x="16" y="48" width="8" height="8" fill="#FEB9FF"/>
<rect x="40" y="72" width="8" height="8" fill="#00E0FF"/>
<rect x="24" y="72" width="8" height="8" fill="#00E0FF"/>
<rect x="24" y="48" width="8" height="8" fill="#FEB9FF"/>
<rect x="24" y="40" width="8" height="8" fill="#FEB9FF"/>
<rect x="32" y="48" width="8" height="8" fill="#FEB9FF"/>
<rect x="32" y="40" width="8" height="8" fill="#E5E4E4"/>
<rect x="72" y="48" width="8" height="8" fill="#00E0FF"/>
<rect y="48" width="8" height="8" fill="#00E0FF"/>
<rect x="72" y="32" width="8" height="8" fill="#00E0FF"/>
<rect y="32" width="8" height="8" fill="#00E0FF"/>
<rect x="64" y="48" width="8" height="8" fill="#00E0FF"/>
<rect x="48" y="56.0001" width="8" height="8" fill="#00E0FF"/>
<rect x="64" y="40" width="8" height="8" transform="rotate(180 64 40)" fill="#FFBF00"/>
<rect x="64" y="32" width="8" height="8" fill="#00E0FF"/>
<rect x="64" y="40" width="8" height="8" fill="#00E0FF"/>
<rect x="8" y="32" width="8" height="8" fill="#00E0FF"/>
<rect x="8" y="48" width="8" height="8" fill="#FEB9FF"/>
<rect x="8" y="63.9999" width="8" height="8" fill="#00E0FF"/>
<rect x="16" y="72" width="8" height="8" fill="#00E0FF"/>
<rect x="72" y="72" width="8" height="8" fill="#00E0FF"/>
<rect y="72" width="8" height="8" fill="#00E0FF"/>
<rect x="8" y="72" width="8" height="8" fill="#00E0FF"/>
<rect x="8" y="23.9999" width="8" height="8" fill="#00E0FF"/>
<rect x="8" y="16.0001" width="8" height="8" fill="#00E0FF"/>
<rect x="8" y="8" width="8" height="8" fill="#00E0FF"/>
<rect x="8" width="8" height="8" fill="#00E0FF"/>
<rect x="32" y="8" width="8" height="8" fill="#00E0FF"/>
<rect x="32" width="8" height="8" fill="#00E0FF"/>
<rect x="40" y="8" width="8" height="8" fill="#00E0FF"/>
<rect x="40" width="8" height="8" fill="#00E0FF"/>
<rect x="48" y="8" width="8" height="8" fill="#FFE500"/>
<rect x="48" width="8" height="8" fill="#00E0FF"/>
<rect x="56" y="8" width="8" height="8" fill="#FFE500"/>
<rect x="56" width="8" height="8" fill="#FFE500"/>
<rect x="64" width="8" height="8" fill="#FFE500"/>
<rect x="24" width="8" height="8" fill="#00E0FF"/>
<rect x="24" y="48" width="8" height="8" transform="rotate(180 24 48)" fill="#FEB9FF"/>
<rect x="40" y="40" width="8" height="8" fill="#CFCFCF"/>
<rect x="48" y="40" width="8" height="8" fill="#E5E4E4"/>
<rect x="24" y="32" width="8" height="8" fill="#E5E4E4"/>
<rect x="64" y="48" width="8" height="8" transform="rotate(180 64 48)" fill="#00E0FF"/>
<rect x="48" y="72" width="8" height="8" fill="#00E0FF"/>
<rect x="48" y="48" width="8" height="8" fill="#00E0FF"/>
<rect x="40" y="48" width="8" height="8" fill="#E5E4E4"/>
<rect x="16" width="8" height="8" fill="#00E0FF"/>
<rect x="72" width="8" height="8" fill="#FFD900"/>
<rect width="8" height="8" fill="#00E0FF"/>
<rect x="16" y="16.0001" width="8" height="8" fill="#00E0FF"/>
<rect x="24" y="16.0001" width="8" height="8" fill="#00E0FF"/>
<rect x="32" y="16.0001" width="8" height="8" fill="#00E0FF"/>
<rect x="40" y="16.0001" width="8" height="8" fill="#FFE500"/>
<rect x="72" y="16.0001" width="8" height="8" fill="#FFBF00"/>
<rect y="16.0001" width="8" height="8" fill="#00E0FF"/>
<rect x="64" y="16.0001" width="8" height="8" fill="#FFD900"/>
<rect x="56" y="16.0001" width="8" height="8" fill="#FFD900"/>
<rect x="48" y="16.0001" width="8" height="8" fill="#FFE500"/>
<rect x="16" y="23.9999" width="8" height="8" fill="#00E0FF"/>
<rect x="32" y="23.9999" width="8" height="8" fill="#E5E4E4"/>
<rect x="32" y="32" width="8" height="8" fill="#CFCFCF"/>
<rect x="40" y="23.9999" width="8" height="8" fill="#CFCFCF"/>
<rect x="72" y="23.9999" width="8" height="8" fill="#00E0FF"/>
<rect y="23.9999" width="8" height="8" fill="#00E0FF"/>
<rect x="24" y="23.9999" width="8" height="8" fill="#00E0FF"/>
<rect x="64" y="23.9999" width="8" height="8" fill="#FFBF00"/>
<rect x="56" y="23.9999" width="8" height="8" fill="#FFD900"/>
<rect x="48" y="23.9999" width="8" height="8" fill="#FFD900"/>
<rect x="16" y="8" width="8" height="8" fill="#00E0FF"/>
<rect x="24" y="8" width="8" height="8" fill="#00E0FF"/>
<rect x="72" y="8" width="8" height="8" fill="#FFD900"/>
<rect y="8" width="8" height="8" fill="#00E0FF"/>
<rect x="64" y="8" width="8" height="8" fill="#FFD900"/>
</g>
<defs>
<clipPath id="clip0">
<rect width="80" height="80" fill="white"/>
</clipPath>
</defs>
</svg>
