<svg width="703" height="211" viewBox="0 0 703 211" fill="none" xmlns="http://www.w3.org/2000/svg">
<path d="M14.1343 20.6667C4.49757 30.3034 2.1343 37.4765 2.1343 50.5926C2.1343 55.5545 1.15122 61.2369 4.50467 64.963C9.75374 70.7953 31.4676 87.4096 31.4676 69.3333C31.4676 66.0169 35.0946 55.5529 32.5047 52.963C30.0814 50.5397 27.3629 55.5063 26.1343 56.6667C24.6597 58.0594 18.5957 58 21.4676 58C24.3408 58 25.8566 57.4127 28.2084 56.7407C32.7346 55.4475 30.1343 55.9729 30.1343 58C30.1343 62.1416 35.8004 70.4991 38.1343 74" stroke="black" stroke-width="3" stroke-linecap="round"/>
<path d="M47.4677 55.3333C47.9784 54.4607 53.3042 44.6667 51.4677 44.6667C48.4406 44.6667 46.2705 45.6886 43.4677 46C35.1884 46.9199 44.2071 56.9037 46.801 60.0741C51.2587 65.5223 51.0507 68.6667 58.801 68.6667C61.7999 68.6667 74.5996 64.2326 67.4677 60.6667" stroke="black" stroke-width="3" stroke-linecap="round"/>
<path d="M68.801 38C75.8361 47.1997 86.1344 54.8302 86.1344 66.5185C86.1344 70.7799 84.1444 58.2186 83.5418 54C83.0829 50.7879 79.4393 45.1319 81.0973 42C85.3751 33.9198 97.9509 42.2403 101.394 46.6667C105.842 52.3857 107.931 60.7229 110.134 67.3333" stroke="black" stroke-width="3" stroke-linecap="round"/>
<path d="M124.801 51.3333C134.814 51.3333 142.134 51.8494 142.134 40C142.134 33.5763 127.468 35.9596 127.468 42.6667C127.468 49.6009 125.832 58.2902 131.171 63.6296C134.597 67.0556 144.801 73.6006 144.801 64.6667" stroke="black" stroke-width="3" stroke-linecap="round"/>
<path d="M156.801 63.3333C156.801 53.3283 155.468 43.9981 155.468 34C155.468 31.6049 155.468 24.4197 155.468 26.8148C155.468 28.1374 155.304 33.4231 155.764 32.963C158.979 29.7475 163.095 25.2005 168.134 28C172.425 30.3838 178.134 33.82 178.134 39.3333" stroke="black" stroke-width="3" stroke-linecap="round"/>
<path d="M212.801 30C206.5 30 190.764 32.8326 188.875 41.3333C187.695 46.6455 188.152 50.1404 188.801 55.3333C189.855 63.765 210.609 64.106 215.171 59.037C218.549 55.284 216.801 45.9806 216.801 41.3333C216.801 38.6121 215.468 24.5171 215.468 32.6667C215.468 37.1598 211.818 45.2139 216.134 48.6667C219.192 51.1131 222.134 58.3506 222.134 62" stroke="black" stroke-width="3" stroke-linecap="round"/>
<path d="M239.468 8.66666C239.468 19.4156 236.421 41.0141 243.171 50.2963C244.624 52.2942 242.549 55.0075 244.505 56.963C245.927 58.3855 247.075 59.8039 248.801 60.6667" stroke="black" stroke-width="3" stroke-linecap="round"/>
<path d="M224.801 32.6667C236.024 32.6667 245.604 34 256.801 34" stroke="black" stroke-width="3" stroke-linecap="round"/>
<path d="M271.468 27.3333C271.468 35.7778 271.468 44.2222 271.468 52.6667C271.468 58.3443 274.134 63.2716 274.134 68.6667" stroke="black" stroke-width="3" stroke-linecap="round"/>
<path d="M272.801 6V14" stroke="black" stroke-width="3" stroke-linecap="round"/>
<path d="M288.801 28.6667C288.801 40.9871 293.686 50.7925 295.542 61.9259C295.849 63.7667 301.992 76.0966 303.171 74C307.877 65.6344 310.35 54.2075 311.394 44.8148C311.839 40.8053 314.418 29.1917 318.134 27.3333" stroke="black" stroke-width="3" stroke-linecap="round"/>
<path d="M335.468 52.6667C345.249 50.5195 358.134 50.0625 358.134 38C358.134 26.9807 336.801 34.1337 336.801 42C336.801 46.7097 335.468 50.8148 335.468 55.3333C335.468 61.0584 337.707 63.9101 340.505 68.6667C345.109 76.4945 355.612 77.7108 359.468 70" stroke="black" stroke-width="3" stroke-linecap="round"/>
<path d="M427.468 2C430.178 20.0673 436.801 40.2635 436.801 58C436.801 64.4206 439.468 69.8387 439.468 76.6667" stroke="black" stroke-width="3" stroke-linecap="round"/>
<path d="M414.134 42C423.468 42 432.801 42 442.134 42C446.641 42 448.077 38 452.801 38" stroke="black" stroke-width="3" stroke-linecap="round"/>
<path d="M464.801 79.3333C464.801 74.4714 459.807 51.587 463.764 47.6296C466.177 45.2171 477.765 42.5948 479.468 46" stroke="black" stroke-width="3" stroke-linecap="round"/>
<path d="M502.134 55.3333C495.159 55.3333 486.414 53.7352 481.542 60C479.597 62.501 477.9 67.6982 480.208 70.6667C484.211 75.8129 495.861 80.4168 501.838 75.037C505.23 71.9844 504.801 68.3184 504.801 64.0741C504.801 60.591 504.801 53.99 504.801 61.3333C504.801 67.642 512.84 74.077 515.468 79.3333" stroke="black" stroke-width="3" stroke-linecap="round"/>
<path d="M523.468 54C523.468 58.9816 522.976 67.8937 525.097 72.6667C525.917 74.5102 525.245 80.6497 526.431 81.7037C529.344 84.2931 530.134 58.4278 530.134 56C530.134 49.1835 545.695 57.3444 547.468 61.3333C550.745 68.7078 552.801 75.2014 552.801 83.3333" stroke="black" stroke-width="3" stroke-linecap="round"/>
<path d="M582.134 62C576.886 55.0718 573.105 54 564.801 54C562.154 54 559.621 56.7182 559.468 59.3333C559.152 64.7022 570.983 76.7811 576.134 77.9259C581.468 79.1112 586.204 90.9474 578.801 92.5926C573.673 93.7321 560.548 97.425 563.468 88.6667" stroke="black" stroke-width="3" stroke-linecap="round"/>
<path d="M607.468 91.3333C607.468 75.7837 604.801 60.7074 604.801 45.3333C604.801 41.188 602.834 32.6667 608.801 32.6667C613.65 32.6667 620.869 34.6229 625.468 36.6667C631.063 39.1533 630.134 44.9409 630.134 50" stroke="black" stroke-width="3" stroke-linecap="round"/>
<path d="M591.468 71.3333H623.468" stroke="black" stroke-width="3" stroke-linecap="round"/>
<path d="M636.801 82C645.573 81.8513 652.621 82.0846 658.431 75.6296C661.799 71.8873 655.324 71.3333 652.801 71.3333C647.231 71.3333 628.467 74.9985 633.468 84C635.252 87.212 634.494 90.3592 637.468 93.3333C639.263 95.1283 643.761 99.0697 646.134 99.3333C649.561 99.7141 652.447 100.667 656.134 100.667C660.116 100.667 659.316 98.3031 660.801 95.3333" stroke="black" stroke-width="3" stroke-linecap="round"/>
<path d="M672.801 94C672.801 84.6667 672.801 75.3333 672.801 66C672.801 63.6049 672.801 61.2099 672.801 58.8148C672.801 56.3789 671.596 63.5674 671.468 66C670.854 77.6582 672.801 88.9362 672.801 100.667C672.801 102.476 675.262 97.5875 675.394 96.6667C675.981 92.5512 674.845 88.6075 676.505 84.6667C678.235 80.5561 674.466 73.6849 679.468 71.037C685.246 67.9779 688.922 67.3333 695.468 67.3333C701.79 67.3333 700.801 71.4436 700.801 76.6667" stroke="black" stroke-width="3" stroke-linecap="round"/>
<path d="M136.333 108C135.997 125.482 128.284 141.48 123 157.333" stroke="black" stroke-width="3" stroke-linecap="round"/>
<path d="M137.667 116C137.667 129.034 135.862 160.431 151 168" stroke="black" stroke-width="3" stroke-linecap="round"/>
<path d="M129.667 145.333H143" stroke="black" stroke-width="3" stroke-linecap="round"/>
<path d="M168.333 157.333C168.333 147.159 165.564 133.128 172.333 124.667C175.223 121.054 184.333 124.897 184.333 129.333" stroke="black" stroke-width="3" stroke-linecap="round"/>
<path d="M205.667 116C205.162 119.365 196.305 164 204.333 164" stroke="black" stroke-width="3" stroke-linecap="round"/>
<path d="M184.333 146.667H211" stroke="black" stroke-width="3" stroke-linecap="round"/>
<path d="M511.69 121.895C515.503 117.014 519.317 111.462 523.394 106.932C524.685 105.497 525.024 99.4464 525.024 101.376C525.024 104.342 523.69 106.587 523.69 109.598C523.69 124.764 530.357 139.073 530.357 153.821C530.357 158.658 535.995 166.037 529.69 164.636C524.901 163.571 519.253 164.826 514.357 164.561C510.652 164.361 506.558 155.884 505.024 160.487C504.207 162.938 524.898 161.895 529.098 161.895C536.674 161.895 543.284 161.895 550.357 161.895" stroke="black" stroke-width="3" stroke-linecap="round"/>
<path d="M302 157.333C302 150.644 300.712 141.323 306.296 136.296C308.922 133.933 318.815 130.963 320.667 134.667" stroke="black" stroke-width="3" stroke-linecap="round"/>
<path d="M332.667 138.667C330.806 143.372 322.719 156.127 327.63 161.037C329.685 163.093 337.66 166.414 340.37 163.704C343.214 160.86 342 153.029 342 149.333C342 142.29 340.419 142.14 334 140" stroke="black" stroke-width="3" stroke-linecap="round"/>
<path d="M356.667 136C356.667 149.546 358.528 167.478 352.963 180C350.837 184.783 350.154 189.06 343.037 189.333C338.564 189.505 331.333 190.218 331.333 184" stroke="black" stroke-width="3" stroke-linecap="round"/>
<path d="M356.667 118.667C346.728 114.788 346.75 120 355.333 120" stroke="black" stroke-width="3" stroke-linecap="round"/>
<path d="M375.333 140C384.23 139.783 392.929 135.253 389.926 124.741C388.643 120.25 375.333 124.832 375.333 130.667C375.333 138.132 375.617 141.603 380.074 147.333C382.681 150.686 397.355 153.289 399.333 149.333" stroke="black" stroke-width="3" stroke-linecap="round"/>
<path d="M418 121.333C409.397 121.333 406 121.064 406 130C406 134.161 408.955 136.011 409.926 139.407C412.394 148.045 426 144.896 426 136" stroke="black" stroke-width="3" stroke-linecap="round"/>
<path d="M438 108C438 124.321 438.009 133.784 451.333 142.667" stroke="black" stroke-width="3" stroke-linecap="round"/>
<path d="M435.333 129.333H456.667" stroke="black" stroke-width="3" stroke-linecap="round"/>
<path d="M268.667 136C268.667 148.198 268.667 160.395 268.667 172.593C268.667 178.922 266.928 183.353 266.074 189.333C265.121 196.004 262 202.78 262 209.333" stroke="black" stroke-width="3" stroke-linecap="round"/>
<path d="M271.333 136C276.444 136 288.825 134.531 292.667 139.333C294.061 141.076 298.016 145.169 294.593 148.593C288.588 154.597 280.821 156 272.667 156" stroke="black" stroke-width="3" stroke-linecap="round"/>
<path d="M227 138C233.798 146.702 233.408 139.333 228.333 139.333" stroke="black" stroke-width="3" stroke-linecap="round"/>
<path d="M225.667 159.333C231.279 166.583 231.977 160.667 228.333 160.667" stroke="black" stroke-width="3" stroke-linecap="round"/>
</svg>
