<svg width="169" height="67" viewBox="0 0 169 67" fill="none" xmlns="http://www.w3.org/2000/svg">
<path d="M93.211 6.24921C69.7575 6.54609 44.9264 11.6989 22.8407 19.8788C12.2781 23.7909 6.85786 30.0417 2.84066 39.5825C-0.823403 48.2847 8.22008 57.9097 15.8777 59.8788C38.4879 65.6929 59.6108 64.9159 82.6925 64.9159C98.7926 64.9159 114.533 62.694 130.544 62.2492C138.26 62.0349 144.821 57.7 151.878 56.9159C159.338 56.087 164.878 37.1796 166.248 30.8418C170.837 9.61882 150.571 5.57853 133.952 3.87884C123.343 2.79384 111.678 0.594726 101.211 3.28625C96.7313 4.43818 93.8774 6.24921 89.211 6.24921" stroke="black" stroke-width="3" stroke-linecap="round"/>
<path d="M29.2111 34.2492C29.2111 39.3109 29.2111 44.3727 29.2111 49.4344C29.2111 51.6793 30.7914 44.9849 32.5444 43.5825C34.4759 42.0373 33.8223 38.5191 37.8037 39.6566C39.3591 40.101 38.5444 46.816 38.5444 48.2492C38.5444 60.8008 37.1884 43.9693 39.8777 42.5455C46.355 39.1164 46.5444 51.5962 46.5444 55.5825" stroke="black" stroke-width="3" stroke-linecap="round"/>
<path d="M57.2112 43.5825V51.5825" stroke="black" stroke-width="3" stroke-linecap="round"/>
<path d="M54.5444 36.9159C55.1827 34.079 55.8948 32.443 57.2111 30.2492" stroke="black" stroke-width="3" stroke-linecap="round"/>
<path d="M66.5445 39.5826C66.5445 42.1927 64.6793 60.3096 66.4704 52.2492C67.1757 49.0754 69.4402 42.7321 72.6186 40.9159C75.592 39.2168 83.3013 38.6823 83.8778 43.5826C84.1744 46.1032 85.931 48.0633 85.1371 50.8418C84.7553 52.1781 81.9731 54.0588 81.2112 55.5826" stroke="black" stroke-width="3" stroke-linecap="round"/>
<path d="M101.211 24.9159V58.2492" stroke="black" stroke-width="3" stroke-linecap="round"/>
<path d="M89.2112 42.2492H113.211" stroke="black" stroke-width="3" stroke-linecap="round"/>
</svg>
