<svg width="446" height="95" viewBox="0 0 446 95" fill="none" xmlns="http://www.w3.org/2000/svg">
<path d="M36 22.3333C36 30.3674 34.848 39.7612 39.4074 46.9259C40.1583 48.1059 42.7146 56.2017 43.7037 54.3333C48.6263 45.0351 47.5442 32.3503 53.3333 23.6666" stroke="black" stroke-width="3" stroke-linecap="round"/>
<path d="M65.3334 38.3333V58.3333" stroke="black" stroke-width="3" stroke-linecap="round"/>
<path d="M61.3334 26.3333C75.5278 25.9871 68.0958 18.2855 62.6667 21" stroke="black" stroke-width="3" stroke-linecap="round"/>
<path d="M81.3333 45C87.4801 44.8746 99.4582 43.6369 92.7407 35C90.2047 31.7394 82.3672 31.9661 79.3333 35C74.4846 39.8487 78.4064 46.9052 82.6666 51.6667C86.6344 56.1012 88.5705 55.6667 94.6666 55.6667" stroke="black" stroke-width="3" stroke-linecap="round"/>
<path d="M106.667 35.6667C106.817 43.0409 108.307 46.8235 112.593 52.3333C114.491 54.774 116.402 59.0086 118.37 54.3333C120.056 50.3305 120.315 44.5827 121.259 40.3333C122.187 36.1563 121.649 39.9828 124.667 43C127.373 45.7064 132.024 56.1364 134 51C136.265 45.1111 138.667 35.2457 138.667 29" stroke="black" stroke-width="3" stroke-linecap="round"/>
<path d="M165.333 38.3333C164.135 44.8563 159.639 52.6448 166 57.5926C169.672 60.4484 175.012 57.7808 175.926 53.6667C176.377 51.6366 177.168 41.4277 175.704 39.963C174.684 38.9436 168.443 37.8881 166.667 37" stroke="black" stroke-width="3" stroke-linecap="round"/>
<path d="M185.333 39.6667C185.333 75.3454 187.669 33 198 33C209.328 33 205.679 50.1846 209.333 55.6667" stroke="black" stroke-width="3" stroke-linecap="round"/>
<path d="M270.667 34.3333C262.352 37.8969 258.667 41.7464 258.667 50.6296C258.667 53.9951 257.438 59.7714 260 62.3333C263.304 65.6378 274.766 69.2094 278.37 64.7037C281.814 60.3985 281.333 49.1847 281.333 43.6666C281.333 36.1278 279.539 34.3333 272 34.3333" stroke="black" stroke-width="3" stroke-linecap="round"/>
<path d="M288 53C288 61.8889 288 70.7778 288 79.6667C288 87.2353 288.889 64.5556 289.333 57C289.718 50.4623 298.131 56.6642 299.704 58.6296C303.649 63.5607 291.244 65 289.333 65" stroke="black" stroke-width="3" stroke-linecap="round"/>
<path d="M305.333 58.3333C310.746 58.3333 323.859 61.506 321.259 52.4074C320.322 49.1284 308.494 49.716 306.074 50.4074C301.093 51.8307 305.032 61.3914 306.37 63.6666C309.106 68.3167 310.464 70.3333 316 70.3333" stroke="black" stroke-width="3" stroke-linecap="round"/>
<path d="M328 54.3333C328 59 328 63.6667 328 68.3333C328 70.325 327.615 72.2137 328.074 69C328.507 65.9661 328.962 56.4166 332 54.6296C343.273 47.9985 345.871 65.1402 349.333 70.3333" stroke="black" stroke-width="3" stroke-linecap="round"/>
<path d="M369.333 43.6666C368.206 40.4176 360.478 19.4519 354.37 31.6666C350.989 38.4297 354.603 44.8564 357.333 51C360.222 57.4984 367.361 59.7652 369.407 66.9259C370.06 69.2114 372.286 71.6666 368 71.6666C365.479 71.6666 361.142 72.6179 360 70.3333" stroke="black" stroke-width="3" stroke-linecap="round"/>
<path d="M382.667 55.6666C383.291 55.2123 398.255 47.6666 388.667 47.6666C383.002 47.6666 380 46.1888 380 52.7037C380 58.4071 381.829 62.619 385.333 67C387.188 69.3179 393.261 70.4776 394.667 67.6666" stroke="black" stroke-width="3" stroke-linecap="round"/>
<path d="M406.667 50.3333C404.253 56.5196 401.495 64.3492 408.667 68.3333C416.728 72.8115 414.667 61.5532 414.667 57C414.667 55.4403 415.007 51.958 412.296 52.2592C410.674 52.4395 416.354 57.3596 416.593 57.6666C419.039 60.812 421.908 64.0494 425.333 66.3333" stroke="black" stroke-width="3" stroke-linecap="round"/>
<path d="M178.667 13C148.94 13 121.113 8.90663 92 3.96296C82.1207 2.28534 71.2038 0.846517 61.3333 3.66666C49.5904 7.02178 36.7362 6.29742 24.7407 9.29629C17.8745 11.0129 12.8096 13.291 6.66666 16.7037C-1.97885 21.5068 1.93613 38.2783 9.33333 42.6296C15.2055 46.0838 18.9994 52.4997 25.3333 55.6667C32.3313 59.1656 40.5974 60.0199 47.2593 64.2593C52.5267 67.6113 61.3679 69.1612 67.4074 70.2593C75.3758 71.7081 83.9539 73.044 91.7778 75C102.33 77.6381 114.086 74.6966 124.889 76.3333C135.595 77.9554 147.822 78.3333 158.667 78.3333C179.737 78.3333 199.667 86.3333 220.741 86.3333C231.291 86.3333 240.865 89.1748 251.704 89C267.202 88.75 282.434 89 298 89C320.2 89 341.725 93 364 93C372.135 93 379.725 87.6667 387.407 87.6667C392.935 87.6667 398.066 86.2446 403.333 85.0741C408.166 84.0002 415.826 83.6667 420.667 83.6667C424.545 83.6667 432.375 83.3667 435.333 81C440.076 77.2058 439.625 66.9651 442 61.7407C443.635 58.1427 445.383 48.2252 442.667 45C438.977 40.6181 438.835 33.4138 434.667 29C423.716 17.4057 400.968 17.9178 386.667 15.6667C349.156 9.7622 310.959 14.3333 273.333 14.3333C252.386 14.3333 230.137 16.5708 209.333 14.2593C198.846 13.094 189.46 11.6667 178.667 11.6667" stroke="black" stroke-width="3" stroke-linecap="round"/>
</svg>
